<svg xmlns="http://www.w3.org/2000/svg" viewBox="0 0 459.19 123.54"><defs><style>.cls-1{fill:#ff8e00;}.cls-2{fill:#e2641e;}.cls-3{fill:#fff;}.cls-4{fill:#111;}</style></defs><title>push7_logo_side</title><g id="レイヤー_2" data-name="レイヤー 2"><g id="レイヤー_1-2" data-name="レイヤー 1"><path class="cls-1" d="M123.09,69.08a60.79,60.79,0,0,0,.45-7.31A61.77,61.77,0,1,0,.81,71.73C36.43,44.21,82.2,74.27,123.09,69.08Z"/><path class="cls-2" d="M.81,71.73a61.76,61.76,0,0,0,122.28-2.65C82.2,74.27,36.43,44.21.81,71.73Z"/><path class="cls-3" d="M77.79,48.6A3.06,3.06,0,0,1,80,46.41C85.78,45,89.58,38.5,86.2,31.92a7.89,7.89,0,0,0-3.39-3.42c-5.71-3-11.41-.51-13.73,4A2.83,2.83,0,0,1,66.57,34H57a2.84,2.84,0,0,1-2.51-1.56c-2.31-4.48-8-6.92-13.68-4a7.87,7.87,0,0,0-3.41,3.37c-3.86,7.42,1.42,14.84,8.44,14.84a9.75,9.75,0,0,0,8.65-5.26A2.83,2.83,0,0,1,57,39.86h9.59a2.82,2.82,0,0,1,2.51,1.56,9.92,9.92,0,0,0,2.29,2.89,2.87,2.87,0,0,1,.9,3.14l-.86,2.41a2.83,2.83,0,0,1-2.27,2.07,9.91,9.91,0,0,0-6.5,4,8.22,8.22,0,0,0-1.72,4,10,10,0,0,0,2.29,7.93,4.06,4.06,0,0,1,.71,4l-.81,2.38a4,4,0,0,1-3,2.72,9.8,9.8,0,0,0-4.77,2.34A9.6,9.6,0,0,0,52.2,87.9a9.75,9.75,0,1,0,19.19-3.34,9.59,9.59,0,0,0-2.24-4.41,4.13,4.13,0,0,1-.77-4.05l.75-2.2a4.07,4.07,0,0,1,3.08-2.74,10.69,10.69,0,0,0,5.25-2.56A8,8,0,0,0,80,64.45a10.07,10.07,0,0,0-2.57-9.79,2.84,2.84,0,0,1-.71-2.95Z"/><path class="cls-4" d="M191.72,94.41h-7a2.58,2.58,0,0,1-2.58-2.58v-59a4.76,4.76,0,0,1,4.76-4.75h17.53c9.19,0,14.11,1.48,17.83,5.29,3.43,3.71,4.92,8.45,4.92,15.79,0,8-1.77,13.09-5.85,16.71-3.62,3.25-8.45,4.55-16.9,4.55h-7.54A2.58,2.58,0,0,0,194.3,73v18.8A2.58,2.58,0,0,1,191.72,94.41Zm12.7-33.8c7.61,0,10.68-3.34,10.68-11.42S212,37.86,204.42,37.86h-7.73a2.58,2.58,0,0,0-2.58,2.58V58a2.59,2.59,0,0,0,2.58,2.58Z"/><path class="cls-4" d="M256.37,46.77a1.84,1.84,0,0,1,1.84,1.84V72.68c0,9.29,2.14,12.91,7.53,12.91,5.94,0,8.07-3.9,8.07-14.3V48.61a1.85,1.85,0,0,1,1.84-1.84h7.84a1.84,1.84,0,0,1,1.84,1.84v44a1.84,1.84,0,0,1-1.84,1.84h-4.8a1.83,1.83,0,0,1-1.75-1.29h0a1.85,1.85,0,0,0-3-.77c-2.4,2.16-5.59,3.08-10.4,3.08-8.08,0-13.28-3.06-15.42-9.19-.93-2.6-1.39-6.41-1.39-12.26V48.61a1.84,1.84,0,0,1,1.84-1.84Z"/><path class="cls-4" d="M310.16,82.56a2.68,2.68,0,0,1,3.34.57c2.28,2.49,4.68,3.2,9.4,3.2,6.41,0,9.47-2,9.47-6a4.13,4.13,0,0,0-2.59-4.18c-1.49-.65-1.49-.65-7.62-1.4-11.79-1.48-16-5.1-16-13.83,0-9.75,6.13-15.14,17.18-15.14,7.5,0,12.83,2,16.66,6.36a2.8,2.8,0,0,1-.67,4.28l-3.77,2.17a2.8,2.8,0,0,1-3.51-.63c-2.05-2.28-4.26-3.08-7.88-3.08-4.55,0-7.05,1.95-7.05,5.48s1.76,4.55,8.26,5.29c7.43.84,10.77,1.67,13.56,3.63s4.36,5.94,4.36,11.23c0,10.22-6.41,15-20,15-8.31,0-14.22-2.08-17.83-6.34a2.8,2.8,0,0,1,.69-4.24Z"/><path class="cls-4" d="M365.14,28.11h7a2.28,2.28,0,0,1,2.28,2.28V45.18a2.28,2.28,0,0,0,3.3,2c2.32-1.14,4.38-1.46,7.75-1.46,8,0,13.37,3.16,15.6,9.19,1,2.7,1.39,6.32,1.39,12.17v25a2.28,2.28,0,0,1-2.28,2.28h-7a2.28,2.28,0,0,1-2.27-2.28V68c0-8.73-2.42-12.35-8-12.35-6,0-8.54,3.9-8.54,13.55v23a2.28,2.28,0,0,1-2.28,2.28h-7a2.28,2.28,0,0,1-2.28-2.28V30.39A2.28,2.28,0,0,1,365.14,28.11Z"/><path class="cls-4" d="M443.81,38H423.89A1.94,1.94,0,0,1,422,36.1V30.05a1.94,1.94,0,0,1,1.94-1.94h33.36a1.94,1.94,0,0,1,1.94,1.94v5a2.17,2.17,0,0,1-.1.62L439.76,93.09a1.93,1.93,0,0,1-1.84,1.32h-8.76a1.94,1.94,0,0,1-1.82-2.59l18.29-51.18A1.94,1.94,0,0,0,443.81,38Z"/></g></g></svg>